<svg width="509" height="128" viewBox="0 0 509 128" fill="none" xmlns="http://www.w3.org/2000/svg">
<g filter="url(#filter0_d_4_40)">
<line x1="39.7438" y1="22.8227" x2="42.3566" y2="27.9111" stroke="white" stroke-width="3" stroke-linecap="round"/>
<line x1="68.0292" y1="23.1761" x2="65.8558" y2="28.4671" stroke="white" stroke-width="3" stroke-linecap="round"/>
<line x1="86.2831" y1="37.9517" x2="81.612" y2="41.2531" stroke="white" stroke-width="3" stroke-linecap="round"/>
<line x1="87.2769" y1="67.8546" x2="81.7485" y2="66.3867" stroke="white" stroke-width="3" stroke-linecap="round"/>
<line x1="68.6143" y1="88.3008" x2="66.5671" y2="82.9597" stroke="white" stroke-width="3" stroke-linecap="round"/>
<line x1="40.0424" y1="88.6978" x2="41.9743" y2="83.314" stroke="white" stroke-width="3" stroke-linecap="round"/>
<line x1="19.7676" y1="69.2758" x2="25.0409" y2="67.0597" stroke="white" stroke-width="3" stroke-linecap="round"/>
<line x1="26.2027" y1="43.2394" x2="20.8718" y2="41.1657" stroke="white" stroke-width="3" stroke-linecap="round"/>
<path d="M60.1413 28.3549C58.8322 21.6881 49.2956 21.6881 47.9865 28.3549C47.2704 32.0021 43.0647 33.7375 39.9835 31.6579C34.3225 27.8371 27.6827 34.705 31.4166 40.327C33.4777 43.4303 31.7454 47.6556 28.1015 48.3827C21.4132 49.7173 21.4132 59.2827 28.1015 60.6173C31.7454 61.3444 33.4777 65.5697 31.4166 68.673C27.6827 74.295 34.3225 81.1629 39.9835 77.3421C43.0647 75.2625 47.2704 76.998 47.9865 80.6451C49.2957 87.3119 58.8322 87.3119 60.1413 80.6451C60.8575 76.9979 65.0631 75.2625 68.1444 77.3421C73.8054 81.1629 80.4452 74.295 76.7113 68.673C74.6501 65.5697 76.3825 61.3444 80.0263 60.6173C86.7147 59.2827 86.7147 49.7173 80.0263 48.3827C76.3825 47.6556 74.6501 43.4303 76.7113 40.327C80.4452 34.705 73.8054 27.8371 68.1444 31.6579C65.0631 33.7375 60.8575 32.0021 60.1413 28.3549Z" stroke="#FCE38A"/>
<path d="M69.26 54.5C69.26 63.6533 62.4196 71.004 54.064 71.004C45.7084 71.004 38.868 63.6533 38.868 54.5C38.868 45.3467 45.7084 37.996 54.064 37.996C62.4196 37.996 69.26 45.3467 69.26 54.5Z" stroke="#FCE38A"/>
<path d="M115.96 70.32C112.803 70.32 110.371 69.4667 108.664 67.76C106.957 66.0533 106.104 63.6427 106.104 60.528V28.976H110.648V60.272C110.648 62.2347 111.139 63.7493 112.12 64.816C113.144 65.8827 114.595 66.416 116.472 66.416C118.477 66.416 120.141 65.84 121.464 64.688L123.064 67.952C122.168 68.7627 121.08 69.36 119.8 69.744C118.563 70.128 117.283 70.32 115.96 70.32ZM100.088 40.176V36.4H120.888V40.176H100.088ZM144.42 70.32C140.922 70.32 137.85 69.5947 135.204 68.144C132.559 66.6507 130.49 64.624 128.996 62.064C127.503 59.4613 126.756 56.496 126.756 53.168C126.756 49.84 127.46 46.896 128.868 44.336C130.319 41.776 132.282 39.7707 134.756 38.32C137.274 36.8267 140.09 36.08 143.204 36.08C146.362 36.08 149.156 36.8053 151.588 38.256C154.063 39.664 156.004 41.6693 157.412 44.272C158.82 46.832 159.524 49.7973 159.524 53.168C159.524 53.3813 159.503 53.616 159.46 53.872C159.46 54.0853 159.46 54.32 159.46 54.576H130.212V51.184H157.028L155.236 52.528C155.236 50.096 154.703 47.9413 153.636 46.064C152.612 44.144 151.204 42.6507 149.412 41.584C147.62 40.5173 145.551 39.984 143.204 39.984C140.9 39.984 138.831 40.5173 136.996 41.584C135.162 42.6507 133.732 44.144 132.708 46.064C131.684 47.984 131.172 50.1813 131.172 52.656V53.36C131.172 55.92 131.727 58.1813 132.836 60.144C133.988 62.064 135.567 63.5787 137.572 64.688C139.62 65.7547 141.946 66.288 144.548 66.288C146.596 66.288 148.495 65.9253 150.244 65.2C152.036 64.4747 153.572 63.3653 154.852 61.872L157.412 64.816C155.919 66.608 154.042 67.9733 151.78 68.912C149.562 69.8507 147.108 70.32 144.42 70.32ZM182.725 70.32C179.397 70.32 176.411 69.5947 173.765 68.144C171.163 66.6507 169.115 64.624 167.621 62.064C166.128 59.4613 165.381 56.496 165.381 53.168C165.381 49.7973 166.128 46.832 167.621 44.272C169.115 41.712 171.163 39.7067 173.765 38.256C176.411 36.8053 179.397 36.08 182.725 36.08C185.584 36.08 188.165 36.6347 190.469 37.744C192.773 38.8533 194.587 40.5173 195.909 42.736L192.517 45.04C191.365 43.3333 189.936 42.0747 188.229 41.264C186.523 40.4533 184.667 40.048 182.661 40.048C180.272 40.048 178.117 40.6027 176.197 41.712C174.277 42.7787 172.763 44.2933 171.653 46.256C170.544 48.2187 169.989 50.5227 169.989 53.168C169.989 55.8133 170.544 58.1173 171.653 60.08C172.763 62.0427 174.277 63.5787 176.197 64.688C178.117 65.7547 180.272 66.288 182.661 66.288C184.667 66.288 186.523 65.8827 188.229 65.072C189.936 64.2613 191.365 63.024 192.517 61.36L195.909 63.664C194.587 65.84 192.773 67.504 190.469 68.656C188.165 69.7653 185.584 70.32 182.725 70.32ZM221.488 36.08C224.219 36.08 226.608 36.6133 228.656 37.68C230.747 38.704 232.368 40.2827 233.52 42.416C234.715 44.5493 235.312 47.2373 235.312 50.48V70H230.768V50.928C230.768 47.3867 229.872 44.72 228.08 42.928C226.331 41.0933 223.856 40.176 220.656 40.176C218.267 40.176 216.176 40.6667 214.384 41.648C212.635 42.5867 211.269 43.9733 210.288 45.808C209.349 47.6 208.88 49.776 208.88 52.336V70H204.336V22.512H208.88V45.616L207.984 43.888C209.051 41.456 210.757 39.5573 213.104 38.192C215.451 36.784 218.245 36.08 221.488 36.08ZM258.21 70.32C255.053 70.32 252.621 69.4667 250.914 67.76C249.207 66.0533 248.354 63.6427 248.354 60.528V28.976H252.898V60.272C252.898 62.2347 253.389 63.7493 254.37 64.816C255.394 65.8827 256.845 66.416 258.722 66.416C260.727 66.416 262.391 65.84 263.714 64.688L265.314 67.952C264.418 68.7627 263.33 69.36 262.05 69.744C260.813 70.128 259.533 70.32 258.21 70.32ZM242.338 40.176V36.4H263.138V40.176H242.338ZM273.586 70V36.4H277.938V45.552L277.49 43.952C278.429 41.392 280.007 39.4507 282.226 38.128C284.445 36.7627 287.197 36.08 290.482 36.08V40.496C290.311 40.496 290.141 40.496 289.97 40.496C289.799 40.4533 289.629 40.432 289.458 40.432C285.917 40.432 283.143 41.52 281.138 43.696C279.133 45.8293 278.13 48.88 278.13 52.848V70H273.586ZM313.161 70.32C310.303 70.32 307.807 69.7867 305.673 68.72C303.54 67.6533 301.876 66.0533 300.681 63.92C299.529 61.7867 298.953 59.12 298.953 55.92V36.4H303.497V55.408C303.497 58.992 304.372 61.7013 306.121 63.536C307.913 65.328 310.409 66.224 313.609 66.224C315.956 66.224 317.983 65.7547 319.689 64.816C321.439 63.8347 322.761 62.4267 323.657 60.592C324.596 58.7573 325.065 56.56 325.065 54V36.4H329.609V70H325.257V60.784L325.961 62.448C324.895 64.9227 323.231 66.864 320.969 68.272C318.751 69.6373 316.148 70.32 313.161 70.32Z" fill="#FCE38A"/>
</g>
<defs>
<filter id="filter0_d_4_40" x="14.2672" y="21.3224" width="319.342" height="76.8758" filterUnits="userSpaceOnUse" color-interpolation-filters="sRGB">
<feFlood flood-opacity="0" result="BackgroundImageFix"/>
<feColorMatrix in="SourceAlpha" type="matrix" values="0 0 0 0 0 0 0 0 0 0 0 0 0 0 0 0 0 0 127 0" result="hardAlpha"/>
<feOffset dy="4"/>
<feGaussianBlur stdDeviation="2"/>
<feComposite in2="hardAlpha" operator="out"/>
<feColorMatrix type="matrix" values="0 0 0 0 0 0 0 0 0 0 0 0 0 0 0 0 0 0 0.25 0"/>
<feBlend mode="normal" in2="BackgroundImageFix" result="effect1_dropShadow_4_40"/>
<feBlend mode="normal" in="SourceGraphic" in2="effect1_dropShadow_4_40" result="shape"/>
</filter>
</defs>
</svg>
