<svg width="231" height="232" viewBox="0 0 231 232" fill="none" xmlns="http://www.w3.org/2000/svg">
<line x1="82.308" y1="47.8571" x2="89.4151" y2="61.6977" stroke="white" stroke-width="3" stroke-linecap="round"/>
<line x1="143.864" y1="47.1331" x2="137.952" y2="61.5249" stroke="white" stroke-width="3" stroke-linecap="round"/>
<line x1="184.041" y1="78.4295" x2="171.335" y2="87.4096" stroke="white" stroke-width="3" stroke-linecap="round"/>
<line x1="187.821" y1="143.229" x2="172.783" y2="139.236" stroke="white" stroke-width="3" stroke-linecap="round"/>
<line x1="148.217" y1="188.921" x2="142.649" y2="174.393" stroke="white" stroke-width="3" stroke-linecap="round"/>
<line x1="86.2432" y1="190.956" x2="91.4983" y2="176.311" stroke="white" stroke-width="3" stroke-linecap="round"/>
<line x1="41.167" y1="149.671" x2="55.5105" y2="143.643" stroke="white" stroke-width="3" stroke-linecap="round"/>
<line x1="57.958" y1="91.0784" x2="43.4577" y2="85.4379" stroke="white" stroke-width="3" stroke-linecap="round"/>
<path d="M127.445 60.4723C124.778 46.8907 105.35 46.8907 102.683 60.4723C101.081 68.6311 91.6733 72.5127 84.7811 67.861C73.2826 60.1004 59.7036 74.0431 67.3338 85.5316C71.9394 92.466 68.0729 101.915 59.9188 103.542C46.2891 106.262 46.2891 125.755 59.9188 128.474C68.0729 130.101 71.9394 139.55 67.3338 146.485C59.7036 157.973 73.2826 171.916 84.7811 164.155C91.6733 159.503 101.081 163.385 102.683 171.544C105.35 185.125 124.778 185.125 127.445 171.544C129.047 163.385 138.455 159.503 145.347 164.155C156.845 171.916 170.424 157.973 162.794 146.485C158.189 139.55 162.055 130.101 170.209 128.474C183.839 125.755 183.839 106.262 170.209 103.542C162.055 101.915 158.189 92.466 162.794 85.5316C170.424 74.0431 156.845 60.1004 145.347 67.861C138.455 72.5127 129.047 68.6311 127.445 60.4723Z" stroke="#FCE38A"/>
<path d="M147.97 116.008C147.97 135.757 133.2 151.698 115.064 151.698C96.9276 151.698 82.1583 135.757 82.1583 116.008C82.1583 96.2589 96.9276 80.3186 115.064 80.3186C133.2 80.3186 147.97 96.2589 147.97 116.008Z" stroke="#FCE38A"/>
</svg>
